<svg width="100" height="100" viewBox="0 0 100 100" fill="none" xmlns="http://www.w3.org/2000/svg">
<g clip-path="url(#clip0_589_2)">
<path d="M93.1816 86.3633V13.6367C93.1816 9.87115 90.1289 6.81836 86.3633 6.81836H37.5V93.1816H86.3633V100H13.6367V93.1816H30.6816V6.81836H13.6367C9.87114 6.81836 6.81836 9.87114 6.81836 13.6367V86.3633C6.81836 90.1289 9.87114 93.1816 13.6367 93.1816V100L13.2842 99.9951C5.9158 99.8083 0 93.7767 0 86.3633V13.6367C0 6.22332 5.9158 0.191687 13.2842 0.00488281L13.6367 0H86.3633C93.8944 0 100 6.10556 100 13.6367V86.3633L99.9951 86.7158C99.8113 93.9672 93.9672 99.8113 86.7158 99.9951L86.3633 100V93.1816C90.1289 93.1816 93.1816 90.1289 93.1816 86.3633Z" fill="black"/>
</g>
<defs>
<clipPath id="clip0_589_2">
<rect width="100" height="100" fill="white"/>
</clipPath>
</defs>
</svg>
